<svg width="385" height="155" viewBox="0 0 385 155" fill="none" xmlns="http://www.w3.org/2000/svg">
<path d="M365 0H20C8.95431 0 0 8.9543 0 20V135C0 146.046 8.95431 155 20 155H365C376.046 155 385 146.046 385 135V20C385 8.9543 376.046 0 365 0Z" fill="#005649"/>
<mask id="mask0_48_3149" style="mask-type:luminance" maskUnits="userSpaceOnUse" x="24" y="26" width="92" height="86">
<path d="M24 26H116V111.403H24V26Z" fill="white"/>
</mask>
<g mask="url(#mask0_48_3149)">
<path fill-rule="evenodd" clip-rule="evenodd" d="M84.6705 102.367C102.623 99.1366 116.359 83.3401 116.359 64.4889C116.359 43.3217 99.0415 26.0078 77.8743 26.0078H24L39.3932 41.401H77.8743C90.5762 41.401 100.962 51.791 100.962 64.4889C100.962 77.1908 90.5762 87.5807 77.8743 87.5807H70.1797V111.08L85.5729 102.195C85.2734 102.255 84.97 102.311 84.6705 102.367Z" fill="white"/>
</g>
<mask id="mask1_48_3149" style="mask-type:luminance" maskUnits="userSpaceOnUse" x="37" y="55" width="43" height="74">
<path d="M37.9838 55.6914H79.7362V128.221H37.9838V55.6914Z" fill="white"/>
</mask>
<g mask="url(#mask1_48_3149)">
<path fill-rule="evenodd" clip-rule="evenodd" d="M51.9956 102.459C51.9956 92.2007 51.9956 81.9386 51.9956 71.6764H72.496C76.2543 71.6764 79.3319 68.2145 79.3319 63.9778C79.3319 59.7452 76.2543 56.2832 72.496 56.2832H38.3275C38.3275 71.6764 38.3275 87.0697 38.3275 102.459V128.346L51.9956 119.457V102.459Z" fill="#0BB197"/>
</g>
<mask id="mask2_48_3149" style="mask-type:luminance" maskUnits="userSpaceOnUse" x="54" y="75" width="39" height="74">
<path d="M54.8506 148.156H92.7455V75.6264H54.8506L54.8506 148.156Z" fill="white"/>
</mask>
<g mask="url(#mask2_48_3149)">
<path fill-rule="evenodd" clip-rule="evenodd" d="M67.3728 94.6296C67.3728 102.16 67.3728 109.693 67.3728 117.226H89.7339C93.1771 117.226 92.4173 119.768 92.4173 122.878C92.4173 125.985 89.5977 128.526 86.1545 128.526H54.8506C54.8506 117.226 54.8506 105.927 54.8506 94.6296V75.6264H67.3728L67.3728 94.6296Z" fill="#0BB197"/>
</g>
<path d="M159.521 60.7708V70.5625H152V43H164.75C168.958 43 171.063 44.7812 171.063 48.3333V55.4583C171.063 58.1823 169.833 59.8542 167.375 60.4792L172.438 70.5625H164.375L160 60.7708H159.521ZM162.479 48.375H159.521V55.6667H162.479C163.198 55.6667 163.563 55.3542 163.563 54.7292V49.3125C163.563 48.6875 163.198 48.375 162.479 48.375Z" fill="white"/>
<path d="M191.522 43H199.043V65.25C199.043 68.7917 196.939 70.5625 192.73 70.5625H186.376C182.168 70.5625 180.064 68.7917 180.064 65.25V43H187.585V64.25C187.585 64.8906 187.939 65.2083 188.647 65.2083H190.46C191.168 65.2083 191.522 64.8906 191.522 64.25V43Z" fill="white"/>
<path d="M223.845 56.4792L229.241 70.5625H221.179L216.033 56.4792L221.137 43H229.2L223.845 56.4792ZM208.47 70.5625V43H215.991V70.5625H208.47Z" fill="white"/>
<path d="M248.679 43H256.2V65.25C256.2 68.7917 254.095 70.5625 249.887 70.5625H243.533C239.325 70.5625 237.22 68.7917 237.22 65.25V43H244.741V64.25C244.741 64.8906 245.095 65.2083 245.804 65.2083H247.616C248.325 65.2083 248.679 64.8906 248.679 64.25V43Z" fill="white"/>
<path d="M278.211 43H285.086V70.5625H278.648L272.502 56.1042V70.5625H265.627V43H272.065L278.211 57.7292V43Z" fill="white"/>
<path d="M170.125 86V91.375H164.792V113.563H157.292V91.375H152V86H170.125Z" fill="#0BB197"/>
<path d="M185.566 108.208H194.962V113.563H178.045V86H194.566V91.375H185.566V97H193.337V102.354H185.566V108.208Z" fill="#0BB197"/>
<path d="M219.945 86V91.375H214.611V113.563H207.111V91.375H201.82V86H219.945Z" fill="#0BB197"/>
<path d="M241.907 113.563L241.053 109.438H234.448L233.532 113.563H226.157L233.24 86H242.386L249.469 113.563H241.907ZM235.594 104.125H239.886L237.782 94.2083L235.594 104.125Z" fill="#0BB197"/>
<path d="M269.756 86H276.631V113.563H270.194L264.048 99.1042V113.563H257.173V86H263.611L269.756 100.729V86Z" fill="#0BB197"/>
<path d="M304.552 95.4583H297.052V91.8958C297.052 91.2604 296.687 90.9375 295.969 90.9375H294.427C293.719 90.9375 293.364 91.2604 293.364 91.8958V107.688C293.364 108.313 293.719 108.625 294.427 108.625H295.969C296.687 108.625 297.052 108.313 297.052 107.688V103.083H294.906V98.3333H304.552V108.25C304.552 111.792 302.448 113.563 298.239 113.563H292.156C287.948 113.563 285.844 111.792 285.844 108.25V91.3333C285.844 87.7812 287.948 86 292.156 86H298.239C302.448 86 304.552 87.7812 304.552 91.3333V95.4583Z" fill="#0BB197"/>
<path d="M332.057 95.4583H324.557V91.8958C324.557 91.2604 324.193 90.9375 323.474 90.9375H321.932C321.224 90.9375 320.87 91.2604 320.87 91.8958V107.688C320.87 108.313 321.224 108.625 321.932 108.625H323.474C324.193 108.625 324.557 108.313 324.557 107.688V103.083H322.412V98.3333H332.057V108.25C332.057 111.792 329.953 113.563 325.745 113.563H319.662C315.453 113.563 313.349 111.792 313.349 108.25V91.3333C313.349 87.7812 315.453 86 319.662 86H325.745C329.953 86 332.057 87.7812 332.057 91.3333V95.4583Z" fill="#0BB197"/>
<path d="M355.105 113.563L354.251 109.438H347.647L346.73 113.563H339.355L346.438 86H355.584L362.667 113.563H355.105ZM348.792 104.125H353.084L350.98 94.2083L348.792 104.125Z" fill="#0BB197"/>
<path d="M327.813 64.25V49.3125C327.813 48.6875 327.458 48.375 326.75 48.375H325.583C324.875 48.375 324.521 48.6875 324.521 49.3125V64.25C324.521 64.8906 324.875 65.2083 325.583 65.2083H326.75C327.458 65.2083 327.813 64.8906 327.813 64.25ZM335.333 48.3333V65.25C335.333 68.7917 333.229 70.5625 329.021 70.5625H323.313C319.104 70.5625 317 68.7917 317 65.25V48.3333C317 44.7812 319.104 43 323.313 43H329.021C333.229 43 335.333 44.7812 335.333 48.3333Z" fill="white"/>
<path d="M351.506 49.3125V52.0208H343.985V48.3333C343.985 44.7812 346.089 43 350.298 43H355.589C359.798 43 361.902 44.7812 361.902 48.3333V51.6875C361.902 54.1771 361.214 55.7865 359.839 56.5208C360.631 56.8698 361.173 57.3958 361.464 58.1042C361.756 58.8021 361.902 59.75 361.902 60.9583V65.25C361.902 68.7917 359.798 70.5625 355.589 70.5625H350.298C346.089 70.5625 343.985 68.7917 343.985 65.25V61.5417H351.506V64.25C351.506 64.8906 351.86 65.2083 352.568 65.2083H353.443C354.152 65.2083 354.506 64.8906 354.506 64.25V60C354.506 59.375 354.152 59.0625 353.443 59.0625H349.964V54.125H353.443C354.152 54.125 354.506 53.8125 354.506 53.1875V49.3125C354.506 48.6875 354.152 48.375 353.443 48.375H352.568C351.86 48.375 351.506 48.6875 351.506 49.3125Z" fill="white"/>
<line x1="302" y1="43" x2="302" y2="71" stroke="white" stroke-width="2"/>
</svg>
